PathFileType	4	(X/Y/Z)	C:\Users\°ÂÌØÂü\Desktop\20210112\bx_n_5_1801-Unnamed.trc
DataRate	CameraRate	NumFrames	NumMarkers	Units	OrigDataRate	OrigDataStartFrame	OrigNumFrames
50.00	50.00	       4	0	mm	50.00	173	       460
Frame#	Time	
		

173	3.440	-727.91449	262.28519	884.03125	-609.02472	-30.52640	810.38672	-626.96246	71.35481	1362.59387	-718.90930	62.51860	219.34186	-683.60809	195.44872	539.73120	-727.18762	250.24342	751.73016	-710.30444	154.94426	217.06955	-593.23669	221.80331	175.88713	-677.13708	-3.97061	522.71436	-779.51263	242.42615	505.07037	-728.89825	-50.19881	568.71783	-651.46771	-71.50544	158.02394	-748.14771	232.02974	647.02295	-768.95862	226.42180	206.05893	-741.85303	231.69633	580.29150	-882.52155	296.05740	144.66100	-674.58093	49.51081	163.95317	-600.74591	21.59206	172.98842	-552.92865	-28.77926	165.50160	-674.60284	174.60509	159.85933	-608.26465	-76.87562	156.83885	-661.34546	299.13257	156.75311	-624.91302	307.44281	158.03105	-556.34528	256.54257	164.93477	-528.23907	304.05109	146.34192	-752.75256	65.31484	1851.90332	-734.82379	250.16243	1546.51929	-647.74170	214.42915	1077.84058	-518.22046	-72.85965	143.15532	-794.04877	37.08464	174.39369	-794.85352	176.81839	184.69026	-733.75531	-103.14522	1545.80005	-702.85577	54.46050	579.50922	-772.20929	-58.59187	487.03064	-761.93091	-24.78884	203.86768	-875.95618	-78.67986	141.17555	-723.95258	-54.60678	616.66174	-694.50250	132.18681	583.04626	-834.89563	58.10861	1054.26001	-685.35504	-98.22263	876.49860							-622.47247	211.17523	804.62701				-705.89703	-82.29498	761.02856	
174	3.460	-727.63751	262.32785	884.11932	-608.54810	-30.23416	810.68457	-627.67657	71.56773	1362.97974	-718.77515	62.41272	219.58302	-683.83777	195.51572	539.73944	-727.02948	250.52971	751.81427	-710.22443	155.14790	217.21722	-593.23669	221.80331	175.88713	-677.05780	-4.01555	522.88336	-779.66852	242.74388	505.08102	-728.66205	-50.45720	568.55908	-651.31042	-71.77655	157.97726	-747.86346	232.17923	647.02600	-768.88062	226.39018	205.99390	-741.90259	232.20995	580.60010	-882.50006	296.18253	144.69447	-675.02802	49.45436	164.19115	-600.74927	21.50550	173.21384	-553.01990	-28.90770	165.36723	-674.60284	174.60509	159.85933	-608.17621	-76.92175	156.78720	-661.24426	299.13568	156.74789	-624.81934	307.32428	158.46089	-556.34589	256.41174	165.06015	-528.28778	304.23587	146.35698	-755.87177	65.42879	1851.86365	-736.82037	250.11880	1546.70239	-647.19891	215.00003	1078.01941	-518.19525	-73.11504	143.07813	-794.26202	36.72635	174.54175	-794.83344	176.84386	184.74529	-735.86694	-103.27815	1545.52527	-702.85577	54.46050	579.50922	-772.24115	-59.10934	487.15085	-762.21210	-25.29402	204.16145	-875.85522	-78.73365	141.22168	-723.69043	-54.77650	616.99152	-694.70276	132.52789	582.99817	-834.11676	58.69323	1053.82776	-684.76801	-98.08540	876.76605							-621.89868	211.46272	804.74200				-705.41998	-81.97185	760.97382	
175	3.480	-727.23987	262.60501	884.09961	-608.26385	-29.96760	810.68121	-628.60681	71.57198	1363.35205	-719.07330	62.20329	219.94928	-683.73987	195.81107	539.79822	-727.04480	250.70894	751.71985	-709.98737	155.29135	217.20534	-593.36884	221.94104	175.88049	-676.92767	-4.18193	522.64075	-779.50616	243.03345	505.01495	-728.36566	-50.82832	568.82507	-651.54938	-71.85249	158.26758	-747.77948	232.56555	647.31659	-768.83020	226.63374	206.26163	-741.90259	232.20995	580.60010	-882.48688	296.20758	144.78180	-675.17767	49.38142	165.12749	-600.91913	21.36992	173.44618	-553.03943	-29.02225	165.33665	-674.60284	174.60509	159.85933	-608.13171	-76.97164	156.82758	-661.19464	299.10507	156.87950	-624.75677	307.35132	157.86002	-556.42279	256.61115	164.98306	-528.24188	304.25183	146.46689	-758.71838	65.27523	1851.46411	-738.50464	249.97778	1547.02466	-646.75684	215.39122	1077.60828	-518.14685	-72.85915	143.04442	-794.59808	36.46217	175.00764	-794.87140	176.76578	184.70837	-737.75555	-103.36169	1545.47424	-702.96240	54.03794	579.37128	-772.10175	-59.35372	487.32495	-762.30194	-25.47071	204.47433	-875.95447	-78.70157	141.15225	-723.54596	-54.92261	616.92609	-694.97388	133.22554	583.31848	-833.64777	59.06808	1053.62329	-683.61115	-97.57321	876.62701							-621.82391	211.43716	804.68951				-704.90515	-82.11976	761.32544	
176	3.500	-726.79437	263.09814	884.09271	-607.77417	-29.59451	810.75854	-629.48090	71.98429	1363.74194	-719.16022	61.88811	219.82846	-683.85211	195.95343	540.02112	-726.66595	251.36069	751.78369	-710.13654	155.20621	217.14406	-593.31702	221.82687	175.79639	-676.67535	-4.10285	522.69513	-779.32288	243.31277	504.86081	-728.25134	-50.93996	568.85815	-651.54449	-71.69796	158.14651	-747.58264	232.90068	647.22650	-768.92212	226.68840	206.37749	-741.90259	232.20995	580.60010	-882.65680	296.19995	144.70871	-675.32166	49.19448	165.36093	-600.93518	21.36461	173.71228	-553.16620	-29.00511	165.25204	-674.60284	174.60509	159.85933	-608.22015	-76.92551	156.87923	-661.25287	299.17117	156.90102	-624.75549	307.19104	158.28372	-556.54919	256.56372	164.89871	-528.13666	304.30460	146.43042	-761.13379	65.13721	1851.35120	-740.23682	249.87582	1547.45605	-646.00781	215.78471	1077.34802	-518.16351	-72.94003	143.02716	-794.10107	36.30462	174.62808	-794.83344	176.84386	184.74529	-739.48254	-103.09933	1545.04431	-702.52551	54.33888	579.35394	-772.03662	-59.58202	487.39236	-762.41931	-25.67551	204.39635	-875.85522	-78.73365	141.22168	-723.55450	-54.73275	616.60638	-694.97113	133.45723	583.21985	-833.31506	59.55845	1053.36182	-683.26636	-97.28371	876.74042							-621.48737	211.88139	804.48810				-704.51740	-82.01255	761.51843	
